<svg width="21" height="19" viewBox="0 0 21 19" xmlns="http://www.w3.org/2000/svg">
<path d="M0 2.52532C0 1.13062 1.13062 0 2.52532 0H7.82536C8.41257 0 8.95025 0.329068 9.21744 0.851971L10.2222 2.81831C10.2427 2.85853 10.2841 2.88384 10.3293 2.88384H18.6392C19.9011 2.88384 20.9241 3.90679 20.9241 5.16865V17.1962C20.9241 18.1924 20.1165 19 19.1203 19H2.28481C1.02294 19 0 17.9771 0 16.7152V2.52532ZM7.75176 1.68354H2.52532C2.06042 1.68354 1.68354 2.06042 1.68354 2.52532V16.7152C1.68354 17.0473 1.95274 17.3165 2.28481 17.3165H19.1203C19.1867 17.3165 19.2405 17.2626 19.2405 17.1962V5.16865C19.2405 4.83659 18.9713 4.56739 18.6392 4.56739H10.3293C9.65172 4.56739 9.03132 4.18769 8.72302 3.58435L7.75176 1.68354Z"/>
</svg>
