<svg width="21" height="21" viewBox="0 0 21 21" fill="none" xmlns="http://www.w3.org/2000/svg">
<path d="M8.09661 4.42366L6.22393 11.404C6.10848 11.8343 5.77009 12.1267 5.38762 12.1267H0.877223C0.392746 12.1267 0 11.6633 0 11.0915C0 10.5198 0.392746 10.0563 0.877223 10.0563H4.7452L7.24922 0.722752C7.5067 -0.23702 8.65601 -0.242256 8.91977 0.715142L13.3984 16.972L15.5938 10.6965C15.7293 10.3091 16.0495 10.0563 16.4046 10.0563H20.1228C20.6073 10.0563 21 10.5198 21 11.0915C21 11.6633 20.6073 12.1267 20.1228 12.1267H16.9915L14.1114 20.3598C13.8001 21.2495 12.7185 21.2002 12.4663 20.2848L8.09661 4.42366Z" fill="#fff"/>
</svg>
